# xmcd
#
# Track frame offsets:
#	150
#	16182
#	34374
#	50484
#	67645
#	83529
#	101569
#	116250
#	129844
#	142867
#	155126
#	170656
#	189600
#	203341
#
# Disc length: 2907 seconds
#
# Revision: 1
# Processed by: cddbd v1.5.2PL0 Copyright (c) Steve Scherf et al.
# Submitted via: audiograbber 1.83.01
#
DISCID=a90b590e
DTITLE=Various Artist - Country Hot Hits Volume 105
DYEAR=1900
DGENRE=
TTITLE0=Faith Hill - If My Heart Had Wings
TTITLE1=Travis Tritt - It's A Great Day To Be Alive
TTITLE2=Martina McBride - It's My Time
TTITLE3=Vince Gill - Shoot Straight From The Heart
TTITLE4=Pam Tillis - Please
TTITLE5=Terri Clark - No Fear
TTITLE6=Clay Davidson - Sometimes 
TTITLE7=Meredith Edwards - A Rose Is A Rose
TTITLE8=Jolie and The Wanted - Boom
TTITLE9=Billy Yates - What Do You Want From Me
TTITLE10=Collin Raye - She's All That
TTITLE11=Sons Of The Desert - What I Did Right
TTITLE12=John Michael Montgomery - That's What I Like About YOu
TTITLE13=Patty Loveless - The Last Thing On My Mind
EXTD=
EXTT0=
EXTT1=
EXTT2=
EXTT3=
EXTT4=
EXTT5=
EXTT6=
EXTT7=
EXTT8=
EXTT9=
EXTT10=
EXTT11=
EXTT12=
EXTT13=
PLAYORDER=
